<?xml version="1.0" standalone="no"?>
<!DOCTYPE svg PUBLIC "-//W3C//DTD SVG 20010904//EN"
 "http://www.w3.org/TR/2001/REC-SVG-20010904/DTD/svg10.dtd">
<svg version="1.0" xmlns="http://www.w3.org/2000/svg"
 width="500.000000pt" height="500.000000pt" viewBox="0 0 500.000000 500.000000"
 preserveAspectRatio="xMidYMid meet">
<metadata>
Created by potrace 1.11, written by Peter Selinger 2001-2013
</metadata>
<g transform="translate(0.000000,500.000000) scale(0.100000,-0.100000)"
fill="#000000" stroke="none">
<path d="M2250 4988 c-461 -46 -918 -231 -1299 -526 -110 -85 -327 -302 -412
-412 -238 -307 -402 -653 -482 -1021 -41 -187 -52 -296 -52 -529 0 -164 10
-332 19 -349 2 -3 6 -29 10 -58 3 -28 8 -57 11 -65 2 -7 6 -24 9 -38 55 -316
228 -697 455 -1000 85 -113 318 -358 396 -415 22 -17 49 -38 60 -48 65 -59
397 -264 457 -282 12 -4 32 -13 43 -19 33 -21 259 -107 315 -121 8 -2 58 -15
110 -29 107 -28 245 -52 370 -65 83 -8 465 -7 505 2 11 2 47 8 80 12 73 9 93
12 125 19 61 13 76 17 97 20 70 14 194 53 398 129 16 6 74 32 128 59 393 193
733 488 973 843 63 92 140 222 144 240 1 6 13 28 26 51 46 78 154 357 179 464
22 91 55 257 60 305 4 33 9 69 12 80 9 38 11 400 3 480 -15 152 -22 210 -26
216 -2 4 -6 24 -10 45 -7 50 -61 263 -73 289 -5 11 -23 61 -41 110 -82 233
-251 525 -420 726 -50 61 -221 234 -290 294 -196 172 -523 366 -750 444 -52
18 -102 36 -110 40 -18 10 -239 67 -290 76 -19 3 -64 10 -100 15 -36 6 -78 13
-95 16 -52 9 -447 11 -535 2z"/>
</g>
</svg>
